<?xml version="1.0" encoding="UTF-8" standalone="no" ?><!DOCTYPE svg PUBLIC "-//W3C//DTD SVG 1.1//EN" "http://www.w3.org/Graphics/SVG/1.1/DTD/svg11.dtd"><svg xmlns="http://www.w3.org/2000/svg" xmlns:xlink="http://www.w3.org/1999/xlink" version="1.1" width="1056" height="500" viewBox="0 0 1056 500" xml:space="preserve"><desc>Created with Fabric.js 1.7.19</desc><defs></defs><rect x="0" y="0" width="1056" height="500" fill="#FFFFFF"></rect><g style="stroke: none; stroke-width: 1; stroke-dasharray: none; stroke-linecap: butt; stroke-linejoin: miter; stroke-miterlimit: 10; fill: none; fill-rule: nonzero; opacity: 1" transform="translate(0 0)" ><path d="M 0.5 0.5 L 1055.5 0.5 L 1055.5 499.5 L 0.5 499.5 Z" style="stroke:#000000;stroke-opacity:1; stroke-opacity: 0; stroke-width: 1; stroke-dasharray: none; stroke-linecap: butt; stroke-linejoin: miter; stroke-miterlimit: 10;fill:#FFFFFF;fill-opacity:1; fill-opacity: 0; fill-rule: nonzero; opacity: 1" transform="" stroke-linecap="round" /><path d="M 448.54436380957196 284.81675252297407 L 350.21801402391725 296.34623377015447 A 179 179 0 0 1 527.9999999999998 96.5 L 527.9999999999999 195.5 A 80 80 0 0 0 448.54436380957196 284.81675252297407 Z" style="stroke:#FFFFFF;stroke-opacity:1; stroke-width: 2; stroke-dasharray: none; stroke-linecap: butt; stroke-linejoin: miter; stroke-miterlimit: 10;fill:#B7B83F;fill-opacity:1; fill-rule: nonzero; opacity: 1" transform="" stroke-linecap="round" /><path d="M 395.5 157.5 L 380.5 144.5 L 372.5 144.5" style="stroke:#000000;stroke-opacity:1; stroke-opacity: 0.3; stroke-width: 1; stroke-dasharray: none; stroke-linecap: butt; stroke-linejoin: miter; stroke-miterlimit: 10; fill: none; fill-rule: nonzero; opacity: 1" transform="" stroke-linecap="round" /><path d="M 475.16509362450444 335.5705640750328 L 409.7818969848287 409.9078871178858 A 179 179 0 0 1 350.21801402391725 296.34623377015447 L 448.54436380957196 284.81675252297407 A 80 80 0 0 0 475.16509362450444 335.5705640750328 Z" style="stroke:#FFFFFF;stroke-opacity:1; stroke-width: 2; stroke-dasharray: none; stroke-linecap: butt; stroke-linejoin: miter; stroke-miterlimit: 10;fill:#448E4D;fill-opacity:1; fill-rule: nonzero; opacity: 1" transform="" stroke-linecap="round" /><path d="M 370.5 358.5 L 352.5 368.5 L 344.5 368.5" style="stroke:#000000;stroke-opacity:1; stroke-opacity: 0.3; stroke-width: 1; stroke-dasharray: none; stroke-linecap: butt; stroke-linejoin: miter; stroke-miterlimit: 10; fill: none; fill-rule: nonzero; opacity: 1" transform="" stroke-linecap="round" /><path d="M 528 195.5 L 528 96.5 A 179 179 0 0 1 612.5442854143791 117.7240075177088 L 565.7851554924599 204.98558995204863 A 80 80 0 0 0 528 195.5 Z" style="stroke:#FFFFFF;stroke-opacity:1; stroke-width: 2; stroke-dasharray: none; stroke-linecap: butt; stroke-linejoin: miter; stroke-miterlimit: 10;fill:#67B7DC;fill-opacity:1; fill-rule: nonzero; opacity: 1" transform="" stroke-linecap="round" /><path d="M 571.5 102.5 L 576.5 83.5 L 584.5 83.5" style="stroke:#000000;stroke-opacity:1; stroke-opacity: 0.3; stroke-width: 1; stroke-dasharray: none; stroke-linecap: butt; stroke-linejoin: miter; stroke-miterlimit: 10; fill: none; fill-rule: nonzero; opacity: 1" transform="" stroke-linecap="round" /><path d="M 565.7851554924599 204.98558995204863 L 612.5442854143791 117.7240075177088 A 179 179 0 0 1 618.7824901061349 121.2290063228686 L 568.5731799357028 206.5520698649692 A 80 80 0 0 0 565.7851554924599 204.98558995204863 Z" style="stroke:#FFFFFF;stroke-opacity:1; stroke-width: 2; stroke-dasharray: none; stroke-linecap: butt; stroke-linejoin: miter; stroke-miterlimit: 10;fill:#FDD400;fill-opacity:1; fill-rule: nonzero; opacity: 1" transform="" stroke-linecap="round" /><path d="M 615.5 120.5 L 625.5 102.5 L 633.5 102.5" style="stroke:#000000;stroke-opacity:1; stroke-opacity: 0.3; stroke-width: 1; stroke-dasharray: none; stroke-linecap: butt; stroke-linejoin: miter; stroke-miterlimit: 10; fill: none; fill-rule: nonzero; opacity: 1" transform="" stroke-linecap="round" /><path d="M 568.5731799357028 206.5520698649692 L 618.7824901061349 121.2290063228686 A 179 179 0 0 1 666.6629342613128 388.69713186314766 L 589.9722611223744 326.09089692207715 A 80 80 0 0 0 568.5731799357028 206.5520698649692 Z" style="stroke:#FFFFFF;stroke-opacity:1; stroke-width: 2; stroke-dasharray: none; stroke-linecap: butt; stroke-linejoin: miter; stroke-miterlimit: 10;fill:#84B761;fill-opacity:1; fill-rule: nonzero; opacity: 1" transform="" stroke-linecap="round" /><path d="M 704.5 244.5 L 723.5 241.5 L 731.5 241.5" style="stroke:#000000;stroke-opacity:1; stroke-opacity: 0.3; stroke-width: 1; stroke-dasharray: none; stroke-linecap: butt; stroke-linejoin: miter; stroke-miterlimit: 10; fill: none; fill-rule: nonzero; opacity: 1" transform="" stroke-linecap="round" /><path d="M 589.9722611223744 326.09089692207715 L 666.6629342613128 388.69713186314766 A 179 179 0 0 1 647.3594408064998 408.8953668249376 L 581.3450014777653 335.11804103907826 A 80 80 0 0 0 589.9722611223744 326.09089692207715 Z" style="stroke:#FFFFFF;stroke-opacity:1; stroke-width: 2; stroke-dasharray: none; stroke-linecap: butt; stroke-linejoin: miter; stroke-miterlimit: 10;fill:#CC4748;fill-opacity:1; fill-rule: nonzero; opacity: 1" transform="" stroke-linecap="round" /><path d="M 657.5 399.5 L 672.5 413.5 L 680.5 413.5" style="stroke:#000000;stroke-opacity:1; stroke-opacity: 0.3; stroke-width: 1; stroke-dasharray: none; stroke-linecap: butt; stroke-linejoin: miter; stroke-miterlimit: 10; fill: none; fill-rule: nonzero; opacity: 1" transform="" stroke-linecap="round" /><path d="M 581.3450014777653 335.11804103907826 L 647.3594408064998 408.8953668249376 A 179 179 0 0 1 598.3667299048516 440.08895261376955 L 559.4488178345705 349.059308430735 A 80 80 0 0 0 581.3450014777653 335.11804103907826 Z" style="stroke:#FFFFFF;stroke-opacity:1; stroke-width: 2; stroke-dasharray: none; stroke-linecap: butt; stroke-linejoin: miter; stroke-miterlimit: 10;fill:#CD82AD;fill-opacity:1; fill-rule: nonzero; opacity: 1" transform="" stroke-linecap="round" /><path d="M 624.5 426.5 L 635.5 443.5 L 643.5 443.5" style="stroke:#000000;stroke-opacity:1; stroke-opacity: 0.3; stroke-width: 1; stroke-dasharray: none; stroke-linecap: butt; stroke-linejoin: miter; stroke-miterlimit: 10; fill: none; fill-rule: nonzero; opacity: 1" transform="" stroke-linecap="round" /><path d="M 559.4488178345705 349.059308430735 L 598.3667299048516 440.08895261376955 A 179 179 0 0 1 409.7818969848287 409.9078871178858 L 475.16509362450444 335.5705640750328 A 80 80 0 0 0 559.4488178345705 349.059308430735 Z" style="stroke:#FFFFFF;stroke-opacity:1; stroke-width: 2; stroke-dasharray: none; stroke-linecap: butt; stroke-linejoin: miter; stroke-miterlimit: 10;fill:#2F4074;fill-opacity:1; fill-rule: nonzero; opacity: 1" transform="" stroke-linecap="round" /><path d="M 500.5 452.5 L 497.5 472.5 L 489.5 472.5" style="stroke:#000000;stroke-opacity:1; stroke-opacity: 0.3; stroke-width: 1; stroke-dasharray: none; stroke-linecap: butt; stroke-linejoin: miter; stroke-miterlimit: 10; fill: none; fill-rule: nonzero; opacity: 1" transform="" stroke-linecap="round" /><g transform=" matrix(1 0 0 1 588 83) "><text xml:space="preserve" font-family="Verdana" font-size="11" font-weight="normal" style="stroke: none; stroke-width: 1; stroke-dasharray: none; stroke-linecap: butt; stroke-linejoin: miter; stroke-miterlimit: 10;fill:#000000;fill-opacity:1; fill-rule: nonzero; opacity: 1; white-space: pre" ><tspan x="0.5" y="7.48" fill="rgba(0,0,0,1)">Agriculture: 7.83%</tspan></text></g><g transform=" matrix(1 0 0 1 637 102) "><text xml:space="preserve" font-family="Verdana" font-size="11" font-weight="normal" style="stroke: none; stroke-width: 1; stroke-dasharray: none; stroke-linecap: butt; stroke-linejoin: miter; stroke-miterlimit: 10;fill:#000000;fill-opacity:1; fill-rule: nonzero; opacity: 1; white-space: pre" ><tspan x="0.5" y="7.48" fill="rgba(0,0,0,1)">Mining and Quarrying: 0.64%</tspan></text></g><g transform=" matrix(1 0 0 1 735 241) "><text xml:space="preserve" font-family="Verdana" font-size="11" font-weight="normal" style="stroke: none; stroke-width: 1; stroke-dasharray: none; stroke-linecap: butt; stroke-linejoin: miter; stroke-miterlimit: 10;fill:#000000;fill-opacity:1; fill-rule: nonzero; opacity: 1; white-space: pre" ><tspan x="0.5" y="7.48" fill="rgba(0,0,0,1)">Manufacturing: 27.43%</tspan></text></g><g transform=" matrix(1 0 0 1 684 413) "><text xml:space="preserve" font-family="Verdana" font-size="11" font-weight="normal" style="stroke: none; stroke-width: 1; stroke-dasharray: none; stroke-linecap: butt; stroke-linejoin: miter; stroke-miterlimit: 10;fill:#000000;fill-opacity:1; fill-rule: nonzero; opacity: 1; white-space: pre" ><tspan x="0.5" y="7.48" fill="rgba(0,0,0,1)">Electricity and Water: 2.49%</tspan></text></g><g transform=" matrix(1 0 0 1 647 443) "><text xml:space="preserve" font-family="Verdana" font-size="11" font-weight="normal" style="stroke: none; stroke-width: 1; stroke-dasharray: none; stroke-linecap: butt; stroke-linejoin: miter; stroke-miterlimit: 10;fill:#000000;fill-opacity:1; fill-rule: nonzero; opacity: 1; white-space: pre" ><tspan x="0.5" y="7.48" fill="rgba(0,0,0,1)">Construction: 5.19%</tspan></text></g><g transform=" matrix(1 0 0 1 485 472) "><text xml:space="preserve" font-family="Verdana" font-size="11" font-weight="normal" style="stroke: none; stroke-width: 1; stroke-dasharray: none; stroke-linecap: butt; stroke-linejoin: miter; stroke-miterlimit: 10;fill:#000000;fill-opacity:1; fill-rule: nonzero; opacity: 1; white-space: pre" ><tspan x="-138.35" y="8.2" fill="rgba(0,0,0,1)">Trade (Wholesale, Retail,</tspan><tspan x="-89.82" y="20.19" fill="rgba(0,0,0,1)">Motor): 17.91%</tspan></text></g><g transform=" matrix(1 0 0 1 340 368) "><text xml:space="preserve" font-family="Verdana" font-size="11" font-weight="normal" style="stroke: none; stroke-width: 1; stroke-dasharray: none; stroke-linecap: butt; stroke-linejoin: miter; stroke-miterlimit: 10;fill:#000000;fill-opacity:1; fill-rule: nonzero; opacity: 1; white-space: pre" ><tspan x="-171.74" y="8.2" fill="rgba(0,0,0,1)">Transport and Communication:</tspan><tspan x="-44.31" y="20.19" fill="rgba(0,0,0,1)">11.66%</tspan></text></g><g transform=" matrix(1 0 0 1 368 144) "><text xml:space="preserve" font-family="Verdana" font-size="11" font-weight="normal" style="stroke: none; stroke-width: 1; stroke-dasharray: none; stroke-linecap: butt; stroke-linejoin: miter; stroke-miterlimit: 10;fill:#000000;fill-opacity:1; fill-rule: nonzero; opacity: 1; white-space: pre" ><tspan x="-133.66" y="8.2" fill="rgba(0,0,0,1)">Finance, real estate and</tspan><tspan x="-149.1" y="20.19" fill="rgba(0,0,0,1)">business services: 26.86%</tspan></text></g><g transform=" matrix(1 0 0 1 528 283) "><text xml:space="preserve" font-family="Verdana" font-size="25" font-weight="bold" style="stroke: none; stroke-width: 1; stroke-dasharray: none; stroke-linecap: butt; stroke-linejoin: miter; stroke-miterlimit: 10;fill:#555555;fill-opacity:1; fill-rule: nonzero; opacity: 1; white-space: pre" ><tspan x="-35.55" y="17" fill="rgba(85,85,85,1)">1996</tspan></text></g><g transform=" matrix(1 0 0 1 528 253) "><text xml:space="preserve" font-family="Verdana" font-size="15" font-weight="normal" style="stroke: none; stroke-width: 1; stroke-dasharray: none; stroke-linecap: butt; stroke-linejoin: miter; stroke-miterlimit: 10;fill:#555555;fill-opacity:1; fill-rule: nonzero; opacity: 1; white-space: pre" ><tspan x="-16.31" y="10.2" fill="rgba(85,85,85,1)">Year</tspan></text></g><g transform=" matrix(1 0 0 1 528 20) "><text xml:space="preserve" font-family="Verdana" font-size="13" font-weight="bold" style="stroke: none; stroke-width: 1; stroke-dasharray: none; stroke-linecap: butt; stroke-linejoin: miter; stroke-miterlimit: 10;fill:#000000;fill-opacity:1; fill-rule: nonzero; opacity: 1; white-space: pre" ><tspan x="-84.72" y="8.84" fill="rgba(0,0,0,1)">South African Economy</tspan></text></g></g></svg>